%TF.GenerationSoftware,KiCad,Pcbnew,(5.1.9)-1*%
%TF.CreationDate,2021-03-21T23:44:43+05:30*%
%TF.ProjectId,Water Level Controller using 555,57617465-7220-44c6-9576-656c20436f6e,rev?*%
%TF.SameCoordinates,Original*%
%TF.FileFunction,Copper,L2,Bot*%
%TF.FilePolarity,Positive*%
%FSLAX46Y46*%
G04 Gerber Fmt 4.6, Leading zero omitted, Abs format (unit mm)*
G04 Created by KiCad (PCBNEW (5.1.9)-1) date 2021-03-21 23:44:43*
%MOMM*%
%LPD*%
G01*
G04 APERTURE LIST*
%TA.AperFunction,ComponentPad*%
%ADD10R,2.500000X2.500000*%
%TD*%
%TA.AperFunction,ComponentPad*%
%ADD11O,2.500000X2.500000*%
%TD*%
%TA.AperFunction,ComponentPad*%
%ADD12R,1.600000X1.600000*%
%TD*%
%TA.AperFunction,ComponentPad*%
%ADD13C,1.600000*%
%TD*%
%TA.AperFunction,ComponentPad*%
%ADD14C,10.160000*%
%TD*%
%TA.AperFunction,ComponentPad*%
%ADD15O,1.600000X1.600000*%
%TD*%
%TA.AperFunction,Conductor*%
%ADD16C,0.600000*%
%TD*%
%TA.AperFunction,Conductor*%
%ADD17C,0.200000*%
%TD*%
G04 APERTURE END LIST*
D10*
%TO.P,K1,1*%
%TO.N,GND*%
X156210000Y-64770000D03*
D11*
%TO.P,K1,3*%
%TO.N,Net-(J4-Pad1)*%
X156210000Y-85770000D03*
%TO.P,K1,5*%
%TO.N,Net-(J3-Pad1)*%
X163710000Y-82270000D03*
%TO.P,K1,6*%
%TO.N,Net-(BZ1-Pad1)*%
X163710000Y-64770000D03*
%TD*%
D12*
%TO.P,BZ1,1*%
%TO.N,Net-(BZ1-Pad1)*%
X135890000Y-78740000D03*
D13*
%TO.P,BZ1,2*%
%TO.N,GND*%
X135890000Y-81940000D03*
%TD*%
D12*
%TO.P,C1,1*%
%TO.N,Net-(C1-Pad1)*%
X144780000Y-78740000D03*
D13*
%TO.P,C1,2*%
%TO.N,GND*%
X144780000Y-81240000D03*
%TD*%
D14*
%TO.P,J1,1*%
%TO.N,+5V*%
X118110000Y-60960000D03*
%TD*%
%TO.P,J2,1*%
%TO.N,Net-(J2-Pad1)*%
X118110000Y-78740000D03*
%TD*%
D13*
%TO.P,R1,1*%
%TO.N,Net-(J2-Pad1)*%
X127000000Y-78740000D03*
D15*
%TO.P,R1,2*%
%TO.N,GND*%
X127000000Y-68580000D03*
%TD*%
%TO.P,R2,2*%
%TO.N,Net-(R2-Pad2)*%
X146050000Y-74930000D03*
D13*
%TO.P,R2,1*%
%TO.N,+5V*%
X146050000Y-64770000D03*
%TD*%
%TO.P,R3,1*%
%TO.N,Net-(C1-Pad1)*%
X149860000Y-74930000D03*
D15*
%TO.P,R3,2*%
%TO.N,Net-(R2-Pad2)*%
X149860000Y-64770000D03*
%TD*%
%TO.P,R4,2*%
%TO.N,GND*%
X132080000Y-64770000D03*
D13*
%TO.P,R4,1*%
%TO.N,Net-(BZ1-Pad1)*%
X132080000Y-74930000D03*
%TD*%
D14*
%TO.P,J3,1*%
%TO.N,Net-(J3-Pad1)*%
X161290000Y-93980000D03*
%TD*%
%TO.P,J4,1*%
%TO.N,Net-(J4-Pad1)*%
X148590000Y-93980000D03*
%TD*%
D16*
%TO.N,Net-(BZ1-Pad1)*%
X132080000Y-74930000D02*
X135255000Y-71755000D01*
X137255010Y-72080010D02*
X136930000Y-71755000D01*
X137255010Y-77374990D02*
X137255010Y-72080010D01*
X135890000Y-78740000D02*
X137255010Y-77374990D01*
D17*
X134654990Y-71429990D02*
X134980000Y-71755000D01*
X134654990Y-70138242D02*
X134654990Y-71429990D01*
X134933242Y-69859990D02*
X134654990Y-70138242D01*
X136956778Y-69859990D02*
X134933242Y-69859990D01*
X137255010Y-69561758D02*
X136956778Y-69859990D01*
X137255010Y-63595010D02*
X137255010Y-69561758D01*
X163710000Y-64770000D02*
X159900000Y-68580000D01*
X159900000Y-68580000D02*
X153670000Y-68580000D01*
X153670000Y-68580000D02*
X152400000Y-67310000D01*
X152400000Y-67310000D02*
X152400000Y-54610000D01*
X152400000Y-54610000D02*
X151130000Y-53340000D01*
X151130000Y-53340000D02*
X113030000Y-53340000D01*
X113030000Y-53340000D02*
X110490000Y-55880000D01*
X110490000Y-55880000D02*
X110490000Y-67310000D01*
X110490000Y-67310000D02*
X111760000Y-68580000D01*
X111760000Y-68580000D02*
X121920000Y-68580000D01*
X121920000Y-68580000D02*
X128270000Y-62230000D01*
X128270000Y-62230000D02*
X135890000Y-62230000D01*
X135890000Y-62230000D02*
X137255010Y-63595010D01*
D16*
%TO.N,GND*%
X135955000Y-69215000D02*
X135955000Y-67375000D01*
X133350000Y-64770000D02*
X132080000Y-64770000D01*
X135955000Y-67375000D02*
X133350000Y-64770000D01*
X127000000Y-68580000D02*
X127000000Y-66040000D01*
X128270000Y-64770000D02*
X132080000Y-64770000D01*
X127000000Y-66040000D02*
X128270000Y-64770000D01*
X127000000Y-68580000D02*
X125730000Y-68580000D01*
X125730000Y-68580000D02*
X121920000Y-72390000D01*
X121920000Y-72390000D02*
X111760000Y-72390000D01*
X111760000Y-72390000D02*
X110490000Y-73660000D01*
X110490000Y-73660000D02*
X110490000Y-85090000D01*
X110490000Y-85090000D02*
X111760000Y-86360000D01*
X143510000Y-86360000D02*
X144780000Y-85090000D01*
X144780000Y-85090000D02*
X144780000Y-81240000D01*
X135890000Y-81940000D02*
X135890000Y-86360000D01*
X135890000Y-86360000D02*
X143510000Y-86360000D01*
X111760000Y-86360000D02*
X135890000Y-86360000D01*
X167640000Y-59690000D02*
X157480000Y-59690000D01*
X168910000Y-60960000D02*
X167640000Y-59690000D01*
X168910000Y-101600000D02*
X168910000Y-60960000D01*
X167640000Y-102870000D02*
X168910000Y-101600000D01*
X142240000Y-102870000D02*
X167640000Y-102870000D01*
X140970000Y-101600000D02*
X142240000Y-102870000D01*
X156210000Y-60960000D02*
X156210000Y-64770000D01*
X140970000Y-88900000D02*
X140970000Y-101600000D01*
X157480000Y-59690000D02*
X156210000Y-60960000D01*
X143510000Y-86360000D02*
X140970000Y-88900000D01*
%TO.N,Net-(C1-Pad1)*%
X144780000Y-78740000D02*
X148590000Y-78740000D01*
X149860000Y-77470000D02*
X149860000Y-74930000D01*
X148590000Y-78740000D02*
X149860000Y-77470000D01*
X141880000Y-71755000D02*
X142240000Y-72115000D01*
X142240000Y-72115000D02*
X142240000Y-77470000D01*
X143510000Y-77470000D02*
X144780000Y-78740000D01*
X142240000Y-77470000D02*
X143510000Y-77470000D01*
X138200000Y-71755000D02*
X140905000Y-71755000D01*
X136930000Y-70485000D02*
X138200000Y-71755000D01*
%TO.N,+5V*%
X140905000Y-69215000D02*
X140905000Y-67375000D01*
X140905000Y-67375000D02*
X143510000Y-64770000D01*
X143510000Y-64770000D02*
X146050000Y-64770000D01*
X118110000Y-60960000D02*
X123190000Y-55880000D01*
X123190000Y-55880000D02*
X144780000Y-55880000D01*
X146050000Y-57150000D02*
X146050000Y-64770000D01*
X144780000Y-55880000D02*
X146050000Y-57150000D01*
%TO.N,Net-(J2-Pad1)*%
X118110000Y-78740000D02*
X127000000Y-78740000D01*
X129935002Y-78740000D02*
X132475002Y-76200000D01*
X127000000Y-78740000D02*
X129935002Y-78740000D01*
X132780000Y-76200000D02*
X135955000Y-73025000D01*
X132475002Y-76200000D02*
X132780000Y-76200000D01*
%TO.N,Net-(R2-Pad2)*%
X141605000Y-70485000D02*
X146050000Y-74930000D01*
X146050000Y-68580000D02*
X149860000Y-64770000D01*
X146050000Y-74930000D02*
X146050000Y-68580000D01*
%TO.N,Net-(J3-Pad1)*%
X163710000Y-82270000D02*
X163710000Y-91560000D01*
%TO.N,Net-(J4-Pad1)*%
X156210000Y-85770000D02*
X148590000Y-93390000D01*
%TD*%
M02*
