M48
; DRILL file {KiCad (5.1.9)-1} date 03/21/21 23:44:50
; FORMAT={-:-/ absolute / inch / decimal}
; #@! TF.CreationDate,2021-03-21T23:44:50+05:30
; #@! TF.GenerationSoftware,Kicad,Pcbnew,(5.1.9)-1
; #@! TF.FileFunction,Plated,1,2,PTH
FMAT,2
INCH
T1C0.0315
T2C0.0394
T3C0.0472
T4C0.2402
%
G90
G05
T1
X5.0Y-2.7
X5.0Y-3.1
X5.2Y-2.55
X5.2Y-2.95
X5.7Y-3.1
X5.7Y-3.1984
X5.75Y-2.55
X5.75Y-2.95
X5.9Y-2.55
X5.9Y-2.95
T2
X5.35Y-3.1
X5.35Y-3.226
T3
X6.15Y-2.55
X6.15Y-3.3768
X6.4453Y-2.55
X6.4453Y-3.239
T4
X4.65Y-2.4
X4.65Y-3.1
X5.85Y-3.7
X6.35Y-3.7
T0
M30
