%TF.GenerationSoftware,KiCad,Pcbnew,(5.1.9)-1*%
%TF.CreationDate,2021-03-21T23:44:43+05:30*%
%TF.ProjectId,Water Level Controller using 555,57617465-7220-44c6-9576-656c20436f6e,rev?*%
%TF.SameCoordinates,Original*%
%TF.FileFunction,Copper,L1,Top*%
%TF.FilePolarity,Positive*%
%FSLAX46Y46*%
G04 Gerber Fmt 4.6, Leading zero omitted, Abs format (unit mm)*
G04 Created by KiCad (PCBNEW (5.1.9)-1) date 2021-03-21 23:44:43*
%MOMM*%
%LPD*%
G01*
G04 APERTURE LIST*
%TA.AperFunction,NonConductor*%
%ADD10C,0.150000*%
%TD*%
%TA.AperFunction,ComponentPad*%
%ADD11R,2.500000X2.500000*%
%TD*%
%TA.AperFunction,ComponentPad*%
%ADD12O,2.500000X2.500000*%
%TD*%
%TA.AperFunction,ComponentPad*%
%ADD13R,1.600000X1.600000*%
%TD*%
%TA.AperFunction,ComponentPad*%
%ADD14C,1.600000*%
%TD*%
%TA.AperFunction,ComponentPad*%
%ADD15C,10.160000*%
%TD*%
%TA.AperFunction,ComponentPad*%
%ADD16O,1.600000X1.600000*%
%TD*%
%TA.AperFunction,Conductor*%
%ADD17C,0.250000*%
%TD*%
G04 APERTURE END LIST*
D10*
X124810476Y-60142380D02*
X124810476Y-59142380D01*
X125048571Y-59142380D01*
X125191428Y-59190000D01*
X125286666Y-59285238D01*
X125334285Y-59380476D01*
X125381904Y-59570952D01*
X125381904Y-59713809D01*
X125334285Y-59904285D01*
X125286666Y-59999523D01*
X125191428Y-60094761D01*
X125048571Y-60142380D01*
X124810476Y-60142380D01*
X126334285Y-59190000D02*
X126239047Y-59142380D01*
X126096190Y-59142380D01*
X125953333Y-59190000D01*
X125858095Y-59285238D01*
X125810476Y-59380476D01*
X125762857Y-59570952D01*
X125762857Y-59713809D01*
X125810476Y-59904285D01*
X125858095Y-59999523D01*
X125953333Y-60094761D01*
X126096190Y-60142380D01*
X126191428Y-60142380D01*
X126334285Y-60094761D01*
X126381904Y-60047142D01*
X126381904Y-59713809D01*
X126191428Y-59713809D01*
X126810476Y-59761428D02*
X127572380Y-59761428D01*
X127953333Y-59142380D02*
X128191428Y-60142380D01*
X128381904Y-59428095D01*
X128572380Y-60142380D01*
X128810476Y-59142380D01*
X129620000Y-60142380D02*
X129620000Y-59618571D01*
X129572380Y-59523333D01*
X129477142Y-59475714D01*
X129286666Y-59475714D01*
X129191428Y-59523333D01*
X129620000Y-60094761D02*
X129524761Y-60142380D01*
X129286666Y-60142380D01*
X129191428Y-60094761D01*
X129143809Y-59999523D01*
X129143809Y-59904285D01*
X129191428Y-59809047D01*
X129286666Y-59761428D01*
X129524761Y-59761428D01*
X129620000Y-59713809D01*
X129953333Y-59475714D02*
X130334285Y-59475714D01*
X130096190Y-59142380D02*
X130096190Y-59999523D01*
X130143809Y-60094761D01*
X130239047Y-60142380D01*
X130334285Y-60142380D01*
X131048571Y-60094761D02*
X130953333Y-60142380D01*
X130762857Y-60142380D01*
X130667619Y-60094761D01*
X130620000Y-59999523D01*
X130620000Y-59618571D01*
X130667619Y-59523333D01*
X130762857Y-59475714D01*
X130953333Y-59475714D01*
X131048571Y-59523333D01*
X131096190Y-59618571D01*
X131096190Y-59713809D01*
X130620000Y-59809047D01*
X131524761Y-60142380D02*
X131524761Y-59475714D01*
X131524761Y-59666190D02*
X131572380Y-59570952D01*
X131620000Y-59523333D01*
X131715238Y-59475714D01*
X131810476Y-59475714D01*
X133381904Y-60142380D02*
X132905714Y-60142380D01*
X132905714Y-59142380D01*
X134096190Y-60094761D02*
X134000952Y-60142380D01*
X133810476Y-60142380D01*
X133715238Y-60094761D01*
X133667619Y-59999523D01*
X133667619Y-59618571D01*
X133715238Y-59523333D01*
X133810476Y-59475714D01*
X134000952Y-59475714D01*
X134096190Y-59523333D01*
X134143809Y-59618571D01*
X134143809Y-59713809D01*
X133667619Y-59809047D01*
X134477142Y-59475714D02*
X134715238Y-60142380D01*
X134953333Y-59475714D01*
X135715238Y-60094761D02*
X135620000Y-60142380D01*
X135429523Y-60142380D01*
X135334285Y-60094761D01*
X135286666Y-59999523D01*
X135286666Y-59618571D01*
X135334285Y-59523333D01*
X135429523Y-59475714D01*
X135620000Y-59475714D01*
X135715238Y-59523333D01*
X135762857Y-59618571D01*
X135762857Y-59713809D01*
X135286666Y-59809047D01*
X136334285Y-60142380D02*
X136239047Y-60094761D01*
X136191428Y-59999523D01*
X136191428Y-59142380D01*
X138048571Y-60047142D02*
X138000952Y-60094761D01*
X137858095Y-60142380D01*
X137762857Y-60142380D01*
X137620000Y-60094761D01*
X137524761Y-59999523D01*
X137477142Y-59904285D01*
X137429523Y-59713809D01*
X137429523Y-59570952D01*
X137477142Y-59380476D01*
X137524761Y-59285238D01*
X137620000Y-59190000D01*
X137762857Y-59142380D01*
X137858095Y-59142380D01*
X138000952Y-59190000D01*
X138048571Y-59237619D01*
X138620000Y-60142380D02*
X138524761Y-60094761D01*
X138477142Y-60047142D01*
X138429523Y-59951904D01*
X138429523Y-59666190D01*
X138477142Y-59570952D01*
X138524761Y-59523333D01*
X138620000Y-59475714D01*
X138762857Y-59475714D01*
X138858095Y-59523333D01*
X138905714Y-59570952D01*
X138953333Y-59666190D01*
X138953333Y-59951904D01*
X138905714Y-60047142D01*
X138858095Y-60094761D01*
X138762857Y-60142380D01*
X138620000Y-60142380D01*
X139381904Y-59475714D02*
X139381904Y-60142380D01*
X139381904Y-59570952D02*
X139429523Y-59523333D01*
X139524761Y-59475714D01*
X139667619Y-59475714D01*
X139762857Y-59523333D01*
X139810476Y-59618571D01*
X139810476Y-60142380D01*
X140143809Y-59475714D02*
X140524761Y-59475714D01*
X140286666Y-59142380D02*
X140286666Y-59999523D01*
X140334285Y-60094761D01*
X140429523Y-60142380D01*
X140524761Y-60142380D01*
X140858095Y-60142380D02*
X140858095Y-59475714D01*
X140858095Y-59666190D02*
X140905714Y-59570952D01*
X140953333Y-59523333D01*
X141048571Y-59475714D01*
X141143809Y-59475714D01*
X141620000Y-60142380D02*
X141524761Y-60094761D01*
X141477142Y-60047142D01*
X141429523Y-59951904D01*
X141429523Y-59666190D01*
X141477142Y-59570952D01*
X141524761Y-59523333D01*
X141620000Y-59475714D01*
X141762857Y-59475714D01*
X141858095Y-59523333D01*
X141905714Y-59570952D01*
X141953333Y-59666190D01*
X141953333Y-59951904D01*
X141905714Y-60047142D01*
X141858095Y-60094761D01*
X141762857Y-60142380D01*
X141620000Y-60142380D01*
X142524761Y-60142380D02*
X142429523Y-60094761D01*
X142381904Y-59999523D01*
X142381904Y-59142380D01*
X143048571Y-60142380D02*
X142953333Y-60094761D01*
X142905714Y-59999523D01*
X142905714Y-59142380D01*
X143810476Y-60094761D02*
X143715238Y-60142380D01*
X143524761Y-60142380D01*
X143429523Y-60094761D01*
X143381904Y-59999523D01*
X143381904Y-59618571D01*
X143429523Y-59523333D01*
X143524761Y-59475714D01*
X143715238Y-59475714D01*
X143810476Y-59523333D01*
X143858095Y-59618571D01*
X143858095Y-59713809D01*
X143381904Y-59809047D01*
X144286666Y-60142380D02*
X144286666Y-59475714D01*
X144286666Y-59666190D02*
X144334285Y-59570952D01*
X144381904Y-59523333D01*
X144477142Y-59475714D01*
X144572380Y-59475714D01*
D11*
%TO.P,K1,1*%
%TO.N,GND*%
X156210000Y-64770000D03*
D12*
%TO.P,K1,3*%
%TO.N,Net-(J4-Pad1)*%
X156210000Y-85770000D03*
%TO.P,K1,5*%
%TO.N,Net-(J3-Pad1)*%
X163710000Y-82270000D03*
%TO.P,K1,6*%
%TO.N,Net-(BZ1-Pad1)*%
X163710000Y-64770000D03*
%TD*%
D13*
%TO.P,BZ1,1*%
%TO.N,Net-(BZ1-Pad1)*%
X135890000Y-78740000D03*
D14*
%TO.P,BZ1,2*%
%TO.N,GND*%
X135890000Y-81940000D03*
%TD*%
D13*
%TO.P,C1,1*%
%TO.N,Net-(C1-Pad1)*%
X144780000Y-78740000D03*
D14*
%TO.P,C1,2*%
%TO.N,GND*%
X144780000Y-81240000D03*
%TD*%
D15*
%TO.P,J1,1*%
%TO.N,+5V*%
X118110000Y-60960000D03*
%TD*%
%TO.P,J2,1*%
%TO.N,Net-(J2-Pad1)*%
X118110000Y-78740000D03*
%TD*%
D14*
%TO.P,R1,1*%
%TO.N,Net-(J2-Pad1)*%
X127000000Y-78740000D03*
D16*
%TO.P,R1,2*%
%TO.N,GND*%
X127000000Y-68580000D03*
%TD*%
%TO.P,R2,2*%
%TO.N,Net-(R2-Pad2)*%
X146050000Y-74930000D03*
D14*
%TO.P,R2,1*%
%TO.N,+5V*%
X146050000Y-64770000D03*
%TD*%
%TO.P,R3,1*%
%TO.N,Net-(C1-Pad1)*%
X149860000Y-74930000D03*
D16*
%TO.P,R3,2*%
%TO.N,Net-(R2-Pad2)*%
X149860000Y-64770000D03*
%TD*%
%TO.P,R4,2*%
%TO.N,GND*%
X132080000Y-64770000D03*
D14*
%TO.P,R4,1*%
%TO.N,Net-(BZ1-Pad1)*%
X132080000Y-74930000D03*
%TD*%
%TO.P,U1,1*%
%TO.N,GND*%
%TA.AperFunction,SMDPad,CuDef*%
G36*
G01*
X134980000Y-69365000D02*
X134980000Y-69065000D01*
G75*
G02*
X135130000Y-68915000I150000J0D01*
G01*
X136780000Y-68915000D01*
G75*
G02*
X136930000Y-69065000I0J-150000D01*
G01*
X136930000Y-69365000D01*
G75*
G02*
X136780000Y-69515000I-150000J0D01*
G01*
X135130000Y-69515000D01*
G75*
G02*
X134980000Y-69365000I0J150000D01*
G01*
G37*
%TD.AperFunction*%
%TO.P,U1,2*%
%TO.N,Net-(C1-Pad1)*%
%TA.AperFunction,SMDPad,CuDef*%
G36*
G01*
X134980000Y-70635000D02*
X134980000Y-70335000D01*
G75*
G02*
X135130000Y-70185000I150000J0D01*
G01*
X136780000Y-70185000D01*
G75*
G02*
X136930000Y-70335000I0J-150000D01*
G01*
X136930000Y-70635000D01*
G75*
G02*
X136780000Y-70785000I-150000J0D01*
G01*
X135130000Y-70785000D01*
G75*
G02*
X134980000Y-70635000I0J150000D01*
G01*
G37*
%TD.AperFunction*%
%TO.P,U1,3*%
%TO.N,Net-(BZ1-Pad1)*%
%TA.AperFunction,SMDPad,CuDef*%
G36*
G01*
X134980000Y-71905000D02*
X134980000Y-71605000D01*
G75*
G02*
X135130000Y-71455000I150000J0D01*
G01*
X136780000Y-71455000D01*
G75*
G02*
X136930000Y-71605000I0J-150000D01*
G01*
X136930000Y-71905000D01*
G75*
G02*
X136780000Y-72055000I-150000J0D01*
G01*
X135130000Y-72055000D01*
G75*
G02*
X134980000Y-71905000I0J150000D01*
G01*
G37*
%TD.AperFunction*%
%TO.P,U1,4*%
%TO.N,Net-(J2-Pad1)*%
%TA.AperFunction,SMDPad,CuDef*%
G36*
G01*
X134980000Y-73175000D02*
X134980000Y-72875000D01*
G75*
G02*
X135130000Y-72725000I150000J0D01*
G01*
X136780000Y-72725000D01*
G75*
G02*
X136930000Y-72875000I0J-150000D01*
G01*
X136930000Y-73175000D01*
G75*
G02*
X136780000Y-73325000I-150000J0D01*
G01*
X135130000Y-73325000D01*
G75*
G02*
X134980000Y-73175000I0J150000D01*
G01*
G37*
%TD.AperFunction*%
%TO.P,U1,5*%
%TO.N,Net-(U1-Pad5)*%
%TA.AperFunction,SMDPad,CuDef*%
G36*
G01*
X139930000Y-73175000D02*
X139930000Y-72875000D01*
G75*
G02*
X140080000Y-72725000I150000J0D01*
G01*
X141730000Y-72725000D01*
G75*
G02*
X141880000Y-72875000I0J-150000D01*
G01*
X141880000Y-73175000D01*
G75*
G02*
X141730000Y-73325000I-150000J0D01*
G01*
X140080000Y-73325000D01*
G75*
G02*
X139930000Y-73175000I0J150000D01*
G01*
G37*
%TD.AperFunction*%
%TO.P,U1,6*%
%TO.N,Net-(C1-Pad1)*%
%TA.AperFunction,SMDPad,CuDef*%
G36*
G01*
X139930000Y-71905000D02*
X139930000Y-71605000D01*
G75*
G02*
X140080000Y-71455000I150000J0D01*
G01*
X141730000Y-71455000D01*
G75*
G02*
X141880000Y-71605000I0J-150000D01*
G01*
X141880000Y-71905000D01*
G75*
G02*
X141730000Y-72055000I-150000J0D01*
G01*
X140080000Y-72055000D01*
G75*
G02*
X139930000Y-71905000I0J150000D01*
G01*
G37*
%TD.AperFunction*%
%TO.P,U1,7*%
%TO.N,Net-(R2-Pad2)*%
%TA.AperFunction,SMDPad,CuDef*%
G36*
G01*
X139930000Y-70635000D02*
X139930000Y-70335000D01*
G75*
G02*
X140080000Y-70185000I150000J0D01*
G01*
X141730000Y-70185000D01*
G75*
G02*
X141880000Y-70335000I0J-150000D01*
G01*
X141880000Y-70635000D01*
G75*
G02*
X141730000Y-70785000I-150000J0D01*
G01*
X140080000Y-70785000D01*
G75*
G02*
X139930000Y-70635000I0J150000D01*
G01*
G37*
%TD.AperFunction*%
%TO.P,U1,8*%
%TO.N,+5V*%
%TA.AperFunction,SMDPad,CuDef*%
G36*
G01*
X139930000Y-69365000D02*
X139930000Y-69065000D01*
G75*
G02*
X140080000Y-68915000I150000J0D01*
G01*
X141730000Y-68915000D01*
G75*
G02*
X141880000Y-69065000I0J-150000D01*
G01*
X141880000Y-69365000D01*
G75*
G02*
X141730000Y-69515000I-150000J0D01*
G01*
X140080000Y-69515000D01*
G75*
G02*
X139930000Y-69365000I0J150000D01*
G01*
G37*
%TD.AperFunction*%
%TD*%
D15*
%TO.P,J3,1*%
%TO.N,Net-(J3-Pad1)*%
X161290000Y-93980000D03*
%TD*%
%TO.P,J4,1*%
%TO.N,Net-(J4-Pad1)*%
X148590000Y-93980000D03*
%TD*%
D17*
%TO.N,Net-(BZ1-Pad1)*%
X135255000Y-71755000D02*
X135955000Y-71755000D01*
X136930000Y-71755000D02*
X135955000Y-71755000D01*
X134980000Y-71755000D02*
X135955000Y-71755000D01*
%TO.N,GND*%
X135890000Y-69150000D02*
X135955000Y-69215000D01*
%TO.N,Net-(C1-Pad1)*%
X140905000Y-71755000D02*
X141880000Y-71755000D01*
X135955000Y-70485000D02*
X136930000Y-70485000D01*
%TO.N,+5V*%
X118110000Y-66040000D02*
X118110000Y-63500000D01*
%TO.N,Net-(J2-Pad1)*%
X118110000Y-78740000D02*
X118110000Y-82550000D01*
%TO.N,Net-(R2-Pad2)*%
X140905000Y-70485000D02*
X141605000Y-70485000D01*
%TO.N,Net-(J3-Pad1)*%
X163710000Y-91560000D02*
X161290000Y-93980000D01*
%TO.N,Net-(J4-Pad1)*%
X148590000Y-93390000D02*
X148590000Y-93980000D01*
%TD*%
M02*
